<svg version="1.1" xmlns="http://www.w3.org/2000/svg" xmlns:xlink="http://www.w3.org/1999/xlink" width="222.94737" height="96.63893" viewBox="0,0,222.94737,96.63893"><g transform="translate(-149.69697,-130.99996)"><g data-paper-data="{&quot;isPaintingLayer&quot;:true}" fill-rule="nonzero" stroke-linejoin="miter" stroke-miterlimit="10" stroke-dasharray="" stroke-dashoffset="0" style="mix-blend-mode: normal"><path d="M155,179.60465h209.90749l-14.7783,-10.66405v10.63977" fill="none" stroke="#ffc3c3" stroke-width="5" stroke-linecap="round"/><path d="M241.67489,177.24996c0.0699,1.02336 0.10541,2.05616 0.10541,3.09726c0,24.73775 -20.05392,44.79167 -44.79167,44.79167c-24.73775,0 -44.79166,-20.05392 -44.79166,-44.79167c0,-0.98579 0.03185,-1.96415 0.09457,-2.93409" fill="none" stroke="#ffc3c3" stroke-width="5" stroke-linecap="butt"/><path d="M241.7696,181.38889c-0.06989,-1.02336 -0.10542,-2.05616 -0.10541,-3.09726c0,-24.73775 20.05391,-44.79167 44.79167,-44.79167c24.73775,0 44.79166,20.05392 44.79166,44.79167c0,0.9858 -0.03185,1.96415 -0.09457,2.9341" fill="none" stroke="#ffc3c3" stroke-width="5" stroke-linecap="butt"/><path d="M353.96812,172.76007c1.92881,-0.09031 5.62613,2.15246 4.33251,4.41629c-0.72036,1.26064 -6.15992,1.82162 -6.29119,-0.54128c-0.25403,-0.39131 -0.40157,-0.85814 -0.40157,-1.35944c0,-1.22776 0.88504,-2.24881 2.05193,-2.45996c0.09689,-0.03131 0.19936,-0.05052 0.30832,-0.05562z" fill="#ffc3c3" stroke="none" stroke-width="0.5" stroke-linecap="butt"/></g></g></svg>