<svg version="1.1" xmlns="http://www.w3.org/2000/svg" xmlns:xlink="http://www.w3.org/1999/xlink" width="184.05055" height="252.28921" viewBox="0,0,184.05055,252.28921"><g transform="translate(-149.69697,-52.99802)"><g data-paper-data="{&quot;isPaintingLayer&quot;:true}" fill="none" fill-rule="nonzero" stroke-width="5" stroke-linejoin="miter" stroke-miterlimit="10" stroke-dasharray="" stroke-dashoffset="0" style="mix-blend-mode: normal"><path d="M155,179.95575h176.22714" stroke="#ffc3c3" stroke-linecap="round"/><path d="M241.67489,177.24996c0.0699,1.02336 0.10541,2.05616 0.10541,3.09726c0,24.73775 -20.05392,44.79167 -44.79167,44.79167c-24.73775,0 -44.79166,-20.05392 -44.79166,-44.79167c0,-0.98579 0.03185,-1.96415 0.09457,-2.93409" stroke="#ffc3c3" stroke-linecap="butt"/><path d="M241.7696,181.38889c-0.06989,-1.02336 -0.10542,-2.05616 -0.10541,-3.09726c0,-24.73775 20.05391,-44.79167 44.79167,-44.79167c24.73775,0 44.79166,20.05392 44.79166,44.79167c0,0.9858 -0.03185,1.96415 -0.09457,2.9341" stroke="#ffc3c3" stroke-linecap="butt"/><path d="M253.61693,89.37992c0,-18.71246 15.16944,-33.8819 33.8819,-33.8819c18.71246,0 33.8819,15.16944 33.8819,33.8819c0,18.71246 -15.16944,33.8819 -33.8819,33.8819c-18.71246,0 -33.8819,-15.16944 -33.8819,-33.8819z" stroke="#ffc3c3" stroke-linecap="butt"/><path d="M161.25012,268.90533c0,-18.71246 15.16944,-33.8819 33.8819,-33.8819c18.71245,0 33.8819,15.16944 33.8819,33.8819c0,18.71246 -15.16944,33.8819 -33.8819,33.8819c-18.71245,0 -33.8819,-15.16944 -33.8819,-33.8819z" stroke="#ffc3c3" stroke-linecap="butt"/></g></g></svg>